<mxfile host="app.diagrams.net" modified="2023-08-25T17:17:24.131Z" agent="Mozilla/5.0 (Windows NT 10.0; Win64; x64) AppleWebKit/537.36 (KHTML, like Gecko) Chrome/116.0.0.0 Safari/537.36" etag="x2SrhYPEUtzIqJA0UvcK" version="21.6.9" type="device">
  <diagram id="R2lEEEUBdFMjLlhIrx00" name="Page-1">
    <mxGraphModel dx="794" dy="466" grid="1" gridSize="10" guides="1" tooltips="1" connect="1" arrows="1" fold="1" page="1" pageScale="1" pageWidth="850" pageHeight="1100" math="0" shadow="0" extFonts="Permanent Marker^https://fonts.googleapis.com/css?family=Permanent+Marker">
      <root>
        <mxCell id="0" />
        <mxCell id="1" parent="0" />
        <mxCell id="UL_m65hmdPu4mNwrcOlh-1" value="" style="rounded=0;whiteSpace=wrap;html=1;fillColor=#e1d5e7;strokeColor=#9673a6;" parent="1" vertex="1">
          <mxGeometry x="40" y="20" width="730" height="460" as="geometry" />
        </mxCell>
        <mxCell id="UL_m65hmdPu4mNwrcOlh-5" value="have" style="rhombus;whiteSpace=wrap;html=1;" parent="1" vertex="1">
          <mxGeometry x="240" y="220" width="60" height="60" as="geometry" />
        </mxCell>
        <mxCell id="UL_m65hmdPu4mNwrcOlh-6" value="works" style="rhombus;whiteSpace=wrap;html=1;" parent="1" vertex="1">
          <mxGeometry x="475" y="190" width="60" height="60" as="geometry" />
        </mxCell>
        <mxCell id="UL_m65hmdPu4mNwrcOlh-7" value="book" style="rhombus;whiteSpace=wrap;html=1;" parent="1" vertex="1">
          <mxGeometry x="340" y="130" width="60" height="60" as="geometry" />
        </mxCell>
        <mxCell id="J0EqsAgF1dmVKwSx4jOC-1" value="" style="endArrow=classic;html=1;rounded=0;exitX=1;exitY=0.5;exitDx=0;exitDy=0;" parent="1" source="UL_m65hmdPu4mNwrcOlh-7" edge="1">
          <mxGeometry width="50" height="50" relative="1" as="geometry">
            <mxPoint x="400" y="170" as="sourcePoint" />
            <mxPoint x="510" y="160" as="targetPoint" />
          </mxGeometry>
        </mxCell>
        <mxCell id="J0EqsAgF1dmVKwSx4jOC-2" value="" style="endArrow=none;html=1;rounded=0;exitX=1;exitY=0.5;exitDx=0;exitDy=0;" parent="1" edge="1">
          <mxGeometry width="50" height="50" relative="1" as="geometry">
            <mxPoint x="230" y="160" as="sourcePoint" />
            <mxPoint x="340" y="160" as="targetPoint" />
          </mxGeometry>
        </mxCell>
        <mxCell id="J0EqsAgF1dmVKwSx4jOC-7" value="" style="endArrow=none;html=1;rounded=0;exitX=1;exitY=0;exitDx=0;exitDy=0;entryX=0.333;entryY=0.933;entryDx=0;entryDy=0;entryPerimeter=0;" parent="1" source="UL_m65hmdPu4mNwrcOlh-6" edge="1">
          <mxGeometry width="50" height="50" relative="1" as="geometry">
            <mxPoint x="520" y="230" as="sourcePoint" />
            <mxPoint x="546.6300000000001" y="177.32000000000005" as="targetPoint" />
          </mxGeometry>
        </mxCell>
        <mxCell id="J0EqsAgF1dmVKwSx4jOC-8" value="org_id" style="ellipse;whiteSpace=wrap;html=1;" parent="1" vertex="1">
          <mxGeometry x="290" y="300" width="90" height="30" as="geometry" />
        </mxCell>
        <mxCell id="J0EqsAgF1dmVKwSx4jOC-10" value="email" style="ellipse;whiteSpace=wrap;html=1;" parent="1" vertex="1">
          <mxGeometry x="460" y="310" width="90" height="30" as="geometry" />
        </mxCell>
        <mxCell id="J0EqsAgF1dmVKwSx4jOC-11" value="contact" style="ellipse;whiteSpace=wrap;html=1;" parent="1" vertex="1">
          <mxGeometry x="465" y="265" width="90" height="30" as="geometry" />
        </mxCell>
        <mxCell id="J0EqsAgF1dmVKwSx4jOC-17" value="name" style="ellipse;whiteSpace=wrap;html=1;" parent="1" vertex="1">
          <mxGeometry x="480" y="90" width="60" height="30" as="geometry" />
        </mxCell>
        <mxCell id="J0EqsAgF1dmVKwSx4jOC-18" value="email" style="ellipse;whiteSpace=wrap;html=1;" parent="1" vertex="1">
          <mxGeometry x="540" y="70" width="60" height="30" as="geometry" />
        </mxCell>
        <mxCell id="J0EqsAgF1dmVKwSx4jOC-19" value="address" style="ellipse;whiteSpace=wrap;html=1;" parent="1" vertex="1">
          <mxGeometry x="600" y="70" width="60" height="30" as="geometry" />
        </mxCell>
        <mxCell id="J0EqsAgF1dmVKwSx4jOC-21" value="age" style="ellipse;whiteSpace=wrap;html=1;" parent="1" vertex="1">
          <mxGeometry x="670" y="140" width="60" height="30" as="geometry" />
        </mxCell>
        <mxCell id="J0EqsAgF1dmVKwSx4jOC-22" value="experience" style="ellipse;whiteSpace=wrap;html=1;" parent="1" vertex="1">
          <mxGeometry x="650" y="180" width="60" height="30" as="geometry" />
        </mxCell>
        <mxCell id="J0EqsAgF1dmVKwSx4jOC-23" value="gender" style="ellipse;whiteSpace=wrap;html=1;" parent="1" vertex="1">
          <mxGeometry x="580" y="200" width="60" height="30" as="geometry" />
        </mxCell>
        <mxCell id="J0EqsAgF1dmVKwSx4jOC-24" value="" style="endArrow=none;html=1;rounded=0;" parent="1" edge="1">
          <mxGeometry width="50" height="50" relative="1" as="geometry">
            <mxPoint x="620" y="160" as="sourcePoint" />
            <mxPoint x="670" y="110" as="targetPoint" />
          </mxGeometry>
        </mxCell>
        <mxCell id="J0EqsAgF1dmVKwSx4jOC-25" value="" style="endArrow=none;html=1;rounded=0;exitX=0.788;exitY=0.083;exitDx=0;exitDy=0;exitPerimeter=0;" parent="1" edge="1">
          <mxGeometry width="50" height="50" relative="1" as="geometry">
            <mxPoint x="596.6800000000001" y="143.32000000000005" as="sourcePoint" />
            <mxPoint x="630" y="100" as="targetPoint" />
          </mxGeometry>
        </mxCell>
        <mxCell id="J0EqsAgF1dmVKwSx4jOC-26" value="" style="endArrow=none;html=1;rounded=0;exitX=1;exitY=0.5;exitDx=0;exitDy=0;" parent="1" edge="1">
          <mxGeometry width="50" height="50" relative="1" as="geometry">
            <mxPoint x="620" y="160" as="sourcePoint" />
            <mxPoint x="670" y="160" as="targetPoint" />
          </mxGeometry>
        </mxCell>
        <mxCell id="J0EqsAgF1dmVKwSx4jOC-27" value="" style="endArrow=none;html=1;rounded=0;" parent="1" edge="1">
          <mxGeometry width="50" height="50" relative="1" as="geometry">
            <mxPoint x="604.4669380395558" y="173.92950754337267" as="sourcePoint" />
            <mxPoint x="650" y="190" as="targetPoint" />
          </mxGeometry>
        </mxCell>
        <mxCell id="J0EqsAgF1dmVKwSx4jOC-28" value="" style="endArrow=none;html=1;rounded=0;" parent="1" source="J0EqsAgF1dmVKwSx4jOC-23" edge="1">
          <mxGeometry width="50" height="50" relative="1" as="geometry">
            <mxPoint x="540" y="230" as="sourcePoint" />
            <mxPoint x="590" y="180" as="targetPoint" />
          </mxGeometry>
        </mxCell>
        <mxCell id="J0EqsAgF1dmVKwSx4jOC-29" value="" style="endArrow=none;html=1;rounded=0;entryX=0.656;entryY=0.956;entryDx=0;entryDy=0;entryPerimeter=0;exitX=0.5;exitY=0;exitDx=0;exitDy=0;" parent="1" target="J0EqsAgF1dmVKwSx4jOC-18" edge="1">
          <mxGeometry width="50" height="50" relative="1" as="geometry">
            <mxPoint x="565" y="140" as="sourcePoint" />
            <mxPoint x="590" y="100" as="targetPoint" />
          </mxGeometry>
        </mxCell>
        <mxCell id="J0EqsAgF1dmVKwSx4jOC-30" value="" style="endArrow=none;html=1;rounded=0;" parent="1" edge="1">
          <mxGeometry width="50" height="50" relative="1" as="geometry">
            <mxPoint x="544.175193485376" y="141.48906087588966" as="sourcePoint" />
            <mxPoint x="520" y="120" as="targetPoint" />
          </mxGeometry>
        </mxCell>
        <mxCell id="J0EqsAgF1dmVKwSx4jOC-31" value="baby_name" style="ellipse;whiteSpace=wrap;html=1;" parent="1" vertex="1">
          <mxGeometry x="240" y="90" width="90" height="30" as="geometry" />
        </mxCell>
        <mxCell id="J0EqsAgF1dmVKwSx4jOC-32" value="father_name" style="ellipse;whiteSpace=wrap;html=1;" parent="1" vertex="1">
          <mxGeometry x="110" y="70" width="70" height="30" as="geometry" />
        </mxCell>
        <mxCell id="J0EqsAgF1dmVKwSx4jOC-33" value="mother_name" style="ellipse;whiteSpace=wrap;html=1;" parent="1" vertex="1">
          <mxGeometry x="180" y="60" width="80" height="30" as="geometry" />
        </mxCell>
        <mxCell id="J0EqsAgF1dmVKwSx4jOC-35" value="phone_no" style="ellipse;whiteSpace=wrap;html=1;" parent="1" vertex="1">
          <mxGeometry x="40" y="140" width="60" height="30" as="geometry" />
        </mxCell>
        <mxCell id="J0EqsAgF1dmVKwSx4jOC-38" value="address" style="ellipse;whiteSpace=wrap;html=1;" parent="1" vertex="1">
          <mxGeometry x="40" y="180" width="60" height="30" as="geometry" />
        </mxCell>
        <mxCell id="J0EqsAgF1dmVKwSx4jOC-39" value="" style="endArrow=none;html=1;rounded=0;exitX=0.958;exitY=0.283;exitDx=0;exitDy=0;exitPerimeter=0;entryX=0.267;entryY=0.889;entryDx=0;entryDy=0;entryPerimeter=0;" parent="1" target="J0EqsAgF1dmVKwSx4jOC-31" edge="1">
          <mxGeometry width="50" height="50" relative="1" as="geometry">
            <mxPoint x="225.38" y="151.32000000000005" as="sourcePoint" />
            <mxPoint x="260" y="120" as="targetPoint" />
          </mxGeometry>
        </mxCell>
        <mxCell id="J0EqsAgF1dmVKwSx4jOC-40" value="" style="endArrow=none;html=1;rounded=0;exitX=0.788;exitY=0.117;exitDx=0;exitDy=0;exitPerimeter=0;entryX=0.247;entryY=0.152;entryDx=0;entryDy=0;entryPerimeter=0;" parent="1" target="UL_m65hmdPu4mNwrcOlh-1" edge="1">
          <mxGeometry width="50" height="50" relative="1" as="geometry">
            <mxPoint x="206.68000000000006" y="144.67999999999995" as="sourcePoint" />
            <mxPoint x="220" y="110" as="targetPoint" />
          </mxGeometry>
        </mxCell>
        <mxCell id="J0EqsAgF1dmVKwSx4jOC-41" value="" style="endArrow=none;html=1;rounded=0;entryX=0.619;entryY=0.956;entryDx=0;entryDy=0;entryPerimeter=0;" parent="1" target="J0EqsAgF1dmVKwSx4jOC-32" edge="1">
          <mxGeometry width="50" height="50" relative="1" as="geometry">
            <mxPoint x="168.16807957253025" y="140.15489780592088" as="sourcePoint" />
            <mxPoint x="170" y="110" as="targetPoint" />
          </mxGeometry>
        </mxCell>
        <mxCell id="J0EqsAgF1dmVKwSx4jOC-48" value="" style="endArrow=none;html=1;rounded=0;exitX=0;exitY=0;exitDx=0;exitDy=0;" parent="1" edge="1">
          <mxGeometry width="50" height="50" relative="1" as="geometry">
            <mxPoint x="136.1091270347399" y="145.85786437626905" as="sourcePoint" />
            <mxPoint x="120" y="120" as="targetPoint" />
          </mxGeometry>
        </mxCell>
        <mxCell id="J0EqsAgF1dmVKwSx4jOC-49" value="" style="endArrow=none;html=1;rounded=0;" parent="1" edge="1">
          <mxGeometry width="50" height="50" relative="1" as="geometry">
            <mxPoint x="90" y="160" as="sourcePoint" />
            <mxPoint x="120" y="160" as="targetPoint" />
          </mxGeometry>
        </mxCell>
        <mxCell id="n2Fa6u-DVr1naWBBtWN_-13" value="" style="edgeStyle=orthogonalEdgeStyle;rounded=0;orthogonalLoop=1;jettySize=auto;html=1;" parent="1" source="1G4sJzFVhPe_6XEf02SF-2" target="n2Fa6u-DVr1naWBBtWN_-3" edge="1">
          <mxGeometry relative="1" as="geometry" />
        </mxCell>
        <mxCell id="1G4sJzFVhPe_6XEf02SF-2" value="have" style="rhombus;whiteSpace=wrap;html=1;" parent="1" vertex="1">
          <mxGeometry x="135" y="195" width="60" height="40" as="geometry" />
        </mxCell>
        <mxCell id="1G4sJzFVhPe_6XEf02SF-5" value="name" style="ellipse;whiteSpace=wrap;html=1;" parent="1" vertex="1">
          <mxGeometry x="40" y="235" width="90" height="30" as="geometry" />
        </mxCell>
        <mxCell id="1G4sJzFVhPe_6XEf02SF-7" value="age" style="ellipse;whiteSpace=wrap;html=1;" parent="1" vertex="1">
          <mxGeometry x="45" y="320" width="60" height="30" as="geometry" />
        </mxCell>
        <mxCell id="1G4sJzFVhPe_6XEf02SF-8" value="gender" style="ellipse;whiteSpace=wrap;html=1;" parent="1" vertex="1">
          <mxGeometry x="200" y="350" width="60" height="30" as="geometry" />
        </mxCell>
        <mxCell id="1G4sJzFVhPe_6XEf02SF-11" style="edgeStyle=orthogonalEdgeStyle;rounded=0;orthogonalLoop=1;jettySize=auto;html=1;exitX=0.5;exitY=1;exitDx=0;exitDy=0;" parent="1" source="1G4sJzFVhPe_6XEf02SF-5" target="1G4sJzFVhPe_6XEf02SF-5" edge="1">
          <mxGeometry relative="1" as="geometry" />
        </mxCell>
        <mxCell id="1G4sJzFVhPe_6XEf02SF-12" value="address" style="ellipse;whiteSpace=wrap;html=1;" parent="1" vertex="1">
          <mxGeometry x="260" y="340" width="60" height="30" as="geometry" />
        </mxCell>
        <mxCell id="1G4sJzFVhPe_6XEf02SF-15" value="" style="endArrow=none;html=1;rounded=0;" parent="1" edge="1">
          <mxGeometry width="50" height="50" relative="1" as="geometry">
            <mxPoint x="90" y="320" as="sourcePoint" />
            <mxPoint x="110" y="305" as="targetPoint" />
          </mxGeometry>
        </mxCell>
        <mxCell id="1G4sJzFVhPe_6XEf02SF-16" value="" style="endArrow=none;html=1;rounded=0;" parent="1" source="1G4sJzFVhPe_6XEf02SF-8" edge="1">
          <mxGeometry width="50" height="50" relative="1" as="geometry">
            <mxPoint x="160" y="360" as="sourcePoint" />
            <mxPoint x="210" y="310" as="targetPoint" />
          </mxGeometry>
        </mxCell>
        <mxCell id="1G4sJzFVhPe_6XEf02SF-17" value="" style="endArrow=none;html=1;rounded=0;" parent="1" source="1G4sJzFVhPe_6XEf02SF-12" edge="1">
          <mxGeometry width="50" height="50" relative="1" as="geometry">
            <mxPoint x="170" y="350" as="sourcePoint" />
            <mxPoint x="220" y="300" as="targetPoint" />
          </mxGeometry>
        </mxCell>
        <mxCell id="1G4sJzFVhPe_6XEf02SF-18" value="" style="endArrow=none;html=1;rounded=0;exitX=0.5;exitY=1;exitDx=0;exitDy=0;entryX=0;entryY=0;entryDx=0;entryDy=0;" parent="1" source="1G4sJzFVhPe_6XEf02SF-5" target="n2Fa6u-DVr1naWBBtWN_-3" edge="1">
          <mxGeometry width="50" height="50" relative="1" as="geometry">
            <mxPoint x="70" y="360" as="sourcePoint" />
            <mxPoint x="120" y="310" as="targetPoint" />
          </mxGeometry>
        </mxCell>
        <mxCell id="1G4sJzFVhPe_6XEf02SF-19" value="" style="endArrow=none;html=1;rounded=0;exitX=0.717;exitY=0.133;exitDx=0;exitDy=0;exitPerimeter=0;" parent="1" source="J0EqsAgF1dmVKwSx4jOC-38" edge="1">
          <mxGeometry width="50" height="50" relative="1" as="geometry">
            <mxPoint x="90" y="220" as="sourcePoint" />
            <mxPoint x="140" y="170" as="targetPoint" />
          </mxGeometry>
        </mxCell>
        <mxCell id="n2Fa6u-DVr1naWBBtWN_-1" value="Organization" style="rounded=0;whiteSpace=wrap;html=1;" parent="1" vertex="1">
          <mxGeometry x="330" y="255" width="110" height="30" as="geometry" />
        </mxCell>
        <mxCell id="n2Fa6u-DVr1naWBBtWN_-2" value="Babysitter" style="rounded=0;whiteSpace=wrap;html=1;" parent="1" vertex="1">
          <mxGeometry x="510" y="140" width="110" height="40" as="geometry" />
        </mxCell>
        <mxCell id="n2Fa6u-DVr1naWBBtWN_-3" value="Baby" style="rounded=0;whiteSpace=wrap;html=1;" parent="1" vertex="1">
          <mxGeometry x="105" y="275" width="120" height="35" as="geometry" />
        </mxCell>
        <mxCell id="n2Fa6u-DVr1naWBBtWN_-4" value="Parents" style="rounded=0;whiteSpace=wrap;html=1;" parent="1" vertex="1">
          <mxGeometry x="120" y="142.5" width="120" height="35" as="geometry" />
        </mxCell>
        <mxCell id="n2Fa6u-DVr1naWBBtWN_-7" value="takecare" style="rhombus;whiteSpace=wrap;html=1;" parent="1" vertex="1">
          <mxGeometry x="320" y="380" width="80" height="80" as="geometry" />
        </mxCell>
        <mxCell id="n2Fa6u-DVr1naWBBtWN_-11" value="" style="endArrow=none;html=1;rounded=0;exitX=1;exitY=0.5;exitDx=0;exitDy=0;" parent="1" source="n2Fa6u-DVr1naWBBtWN_-7" edge="1">
          <mxGeometry width="50" height="50" relative="1" as="geometry">
            <mxPoint x="520" y="230" as="sourcePoint" />
            <mxPoint x="570" y="180" as="targetPoint" />
            <Array as="points">
              <mxPoint x="570" y="420" />
            </Array>
          </mxGeometry>
        </mxCell>
        <mxCell id="n2Fa6u-DVr1naWBBtWN_-12" value="" style="endArrow=classic;html=1;rounded=0;exitX=0;exitY=0.5;exitDx=0;exitDy=0;" parent="1" source="n2Fa6u-DVr1naWBBtWN_-7" edge="1">
          <mxGeometry width="50" height="50" relative="1" as="geometry">
            <mxPoint x="100" y="360" as="sourcePoint" />
            <mxPoint x="150" y="310" as="targetPoint" />
            <Array as="points">
              <mxPoint x="150" y="420" />
            </Array>
          </mxGeometry>
        </mxCell>
        <mxCell id="n2Fa6u-DVr1naWBBtWN_-16" value="" style="endArrow=none;html=1;rounded=0;entryX=0;entryY=0;entryDx=0;entryDy=0;" parent="1" target="n2Fa6u-DVr1naWBBtWN_-1" edge="1">
          <mxGeometry width="50" height="50" relative="1" as="geometry">
            <mxPoint x="300" y="250" as="sourcePoint" />
            <mxPoint x="350" y="200" as="targetPoint" />
          </mxGeometry>
        </mxCell>
        <mxCell id="n2Fa6u-DVr1naWBBtWN_-18" value="" style="endArrow=classic;html=1;rounded=0;" parent="1" source="UL_m65hmdPu4mNwrcOlh-5" edge="1">
          <mxGeometry width="50" height="50" relative="1" as="geometry">
            <mxPoint x="160" y="230" as="sourcePoint" />
            <mxPoint x="210" y="180" as="targetPoint" />
          </mxGeometry>
        </mxCell>
        <mxCell id="n2Fa6u-DVr1naWBBtWN_-19" value="" style="endArrow=classic;html=1;rounded=0;entryX=0.933;entryY=0.011;entryDx=0;entryDy=0;entryPerimeter=0;exitX=0;exitY=0.5;exitDx=0;exitDy=0;" parent="1" source="UL_m65hmdPu4mNwrcOlh-6" target="n2Fa6u-DVr1naWBBtWN_-1" edge="1">
          <mxGeometry width="50" height="50" relative="1" as="geometry">
            <mxPoint x="450" y="230" as="sourcePoint" />
            <mxPoint x="500" y="180" as="targetPoint" />
          </mxGeometry>
        </mxCell>
        <mxCell id="n2Fa6u-DVr1naWBBtWN_-20" value="" style="endArrow=none;html=1;rounded=0;exitX=0.5;exitY=0;exitDx=0;exitDy=0;entryX=0.444;entryY=1.038;entryDx=0;entryDy=0;entryPerimeter=0;" parent="1" source="1G4sJzFVhPe_6XEf02SF-2" target="n2Fa6u-DVr1naWBBtWN_-4" edge="1">
          <mxGeometry width="50" height="50" relative="1" as="geometry">
            <mxPoint x="160" y="190" as="sourcePoint" />
            <mxPoint x="210" y="140" as="targetPoint" />
          </mxGeometry>
        </mxCell>
        <mxCell id="n2Fa6u-DVr1naWBBtWN_-21" value="" style="endArrow=none;html=1;rounded=0;entryX=0.697;entryY=1.011;entryDx=0;entryDy=0;entryPerimeter=0;" parent="1" target="n2Fa6u-DVr1naWBBtWN_-1" edge="1">
          <mxGeometry width="50" height="50" relative="1" as="geometry">
            <mxPoint x="412.9681759774603" y="330.0152978337701" as="sourcePoint" />
            <mxPoint x="410" y="290" as="targetPoint" />
          </mxGeometry>
        </mxCell>
        <mxCell id="n2Fa6u-DVr1naWBBtWN_-22" value="" style="endArrow=none;html=1;rounded=0;exitX=1;exitY=0;exitDx=0;exitDy=0;entryX=0.5;entryY=1;entryDx=0;entryDy=0;" parent="1" source="J0EqsAgF1dmVKwSx4jOC-8" target="n2Fa6u-DVr1naWBBtWN_-1" edge="1">
          <mxGeometry width="50" height="50" relative="1" as="geometry">
            <mxPoint x="350" y="330" as="sourcePoint" />
            <mxPoint x="400" y="280" as="targetPoint" />
          </mxGeometry>
        </mxCell>
        <mxCell id="n2Fa6u-DVr1naWBBtWN_-23" value="" style="endArrow=none;html=1;rounded=0;" parent="1" target="n2Fa6u-DVr1naWBBtWN_-1" edge="1">
          <mxGeometry width="50" height="50" relative="1" as="geometry">
            <mxPoint x="460" y="320" as="sourcePoint" />
            <mxPoint x="510" y="270" as="targetPoint" />
          </mxGeometry>
        </mxCell>
        <mxCell id="n2Fa6u-DVr1naWBBtWN_-24" value="" style="endArrow=none;html=1;rounded=0;exitX=1;exitY=0.75;exitDx=0;exitDy=0;" parent="1" source="n2Fa6u-DVr1naWBBtWN_-1" edge="1">
          <mxGeometry width="50" height="50" relative="1" as="geometry">
            <mxPoint x="420" y="330" as="sourcePoint" />
            <mxPoint x="470" y="278" as="targetPoint" />
          </mxGeometry>
        </mxCell>
        <mxCell id="n2Fa6u-DVr1naWBBtWN_-26" value="Phone_no" style="ellipse;shape=doubleEllipse;margin=3;whiteSpace=wrap;html=1;align=center;" parent="1" vertex="1">
          <mxGeometry x="660" y="95" width="100" height="40" as="geometry" />
        </mxCell>
        <mxCell id="n2Fa6u-DVr1naWBBtWN_-27" value="number_of&lt;br&gt;baby" style="ellipse;shape=doubleEllipse;margin=3;whiteSpace=wrap;html=1;align=center;" parent="1" vertex="1">
          <mxGeometry x="47.5" y="95" width="75" height="40" as="geometry" />
        </mxCell>
        <mxCell id="n2Fa6u-DVr1naWBBtWN_-28" value="address" style="ellipse;shape=doubleEllipse;margin=3;whiteSpace=wrap;html=1;align=center;" parent="1" vertex="1">
          <mxGeometry x="365" y="330" width="100" height="40" as="geometry" />
        </mxCell>
      </root>
    </mxGraphModel>
  </diagram>
</mxfile>
